<?xml version="1.0" encoding="UTF-8"?>
<svg width="600" height="600" viewBox="0 0 600 600" fill="none" xmlns="http://www.w3.org/2000/svg">
  <!-- Background -->
  <rect width="600" height="600" fill="#E8E2DC"/>
  
  <!-- Stylized figure silhouette - more feminine shape -->
  <path d="M300 190C335.34 190 364 161.34 364 126C364 90.66 335.34 62 300 62C264.66 62 236 90.66 236 126C236 161.34 264.66 190 300 190Z" fill="#7D2027"/>
  <path d="M370 538V435C370 403.81 350 383.64 335 375.61C315 366 324 366 300 366C276 366 285 366 265 375.61C250 383.64 230 403.81 230 435V538H370Z" fill="#7D2027"/>
  
  <!-- Enamel artist elements -->
  <ellipse cx="320" cy="250" rx="40" ry="10" fill="#333333" opacity="0.7"/>
  <ellipse cx="280" cy="270" rx="35" ry="8" fill="#B87333" opacity="0.7"/>
  <ellipse cx="330" cy="290" rx="30" ry="12" fill="#7D2027" opacity="0.7"/>
  <ellipse cx="270" cy="310" rx="25" ry="7" fill="#333333" opacity="0.7"/>
  <ellipse cx="310" cy="330" rx="45" ry="9" fill="#B87333" opacity="0.7"/>
  
  <!-- Artist's palette -->
  <path d="M350 240C377.6 240 400 217.6 400 190C400 162.4 377.6 140 350 140C322.4 140 300 162.4 300 190C300 217.6 322.4 240 350 240Z" fill="#B87333" opacity="0.3"/>
  <circle cx="330" cy="170" r="10" fill="#7D2027" opacity="0.8"/>
  <circle cx="350" cy="160" r="10" fill="#333333" opacity="0.8"/>
  <circle cx="370" cy="170" r="10" fill="#B87333" opacity="0.8"/>
  <circle cx="360" cy="190" r="10" fill="#F8F5F1" opacity="0.8"/>
  <circle cx="340" cy="190" r="10" fill="#E5E5E5" opacity="0.8"/>
  
  <!-- Craftsman text -->
  <rect x="170" y="420" width="260" height="40" rx="4" fill="#7D2027" opacity="0.9"/>
  <text x="300" y="447" font-family="Arial, sans-serif" font-size="18" font-weight="bold" fill="white" text-anchor="middle">Sophie Leroux - Émailleuse</text>
</svg>